<svg width="24" height="24" fill="none" xmlns="http://www.w3.org/2000/svg"><defs><clipPath id="clip11342_1412"><path id="Icon-phone" fill="#fff" fill-opacity="0" d="M0 0h24v24H0z"/></clipPath></defs><path id="Icon-phone" fill="#FFF" fill-opacity="0" d="M0 0h24v24H0z"/><g clip-path="url('#clip11342_1412')"><path id="Vector" d="M21 16.42v3.53a1.005 1.005 0 0 1-.94 1c-.43.03-.79.05-1.06.05-8.84 0-16-7.17-16-16 0-.28.01-.64.04-1.07.02-.26.13-.49.32-.67.18-.17.43-.27.68-.26h3.54c.12-.01.24.04.33.12.09.09.15.2.16.32.03.24.05.42.07.56.2 1.38.6 2.73 1.21 4 .09.2.03.44-.15.56l-2.16 1.55c1.32 3.07 3.77 5.52 6.84 6.84l1.54-2.15c.07-.09.16-.15.26-.18.11-.03.22-.02.32.03 1.26.6 2.61 1.01 4 1.2.14.02.32.05.55.07.12.01.23.07.32.16.08.09.13.21.13.34Z" fill="#F9512E" fill-opacity="1" fill-rule="nonzero"/></g></svg>