<svg width="24" height="24" fill="none" xmlns="http://www.w3.org/2000/svg"><defs><clipPath id="clip11342_1420"><path id="Icon-twitter" fill="#fff" fill-opacity="0" d="M0 0h24v24H0z"/></clipPath></defs><path id="Icon-twitter" fill="#FFF" fill-opacity="0" d="M0 0h24v24H0z"/><g clip-path="url('#clip11342_1420')"><path id="Vector" d="M22.16 5.65c-.77.34-1.58.56-2.41.66.88-.52 1.53-1.35 1.84-2.31-.82.48-1.71.83-2.65 1.01a4.191 4.191 0 0 0-2.37-1.27c-.91-.15-1.85 0-2.66.44a4.166 4.166 0 0 0-2.1 4.64 11.825 11.825 0 0 1-8.62-4.37c-.37.64-.56 1.37-.56 2.11 0 1.45.73 2.73 1.86 3.48a4.19 4.19 0 0 1-1.9-.52v.05c0 .96.34 1.9.95 2.65a4.2 4.2 0 0 0 2.41 1.45c-.62.17-1.27.19-1.89.07.26.83.78 1.56 1.49 2.08.7.52 1.54.81 2.41.83a8.4 8.4 0 0 1-2.92 1.48c-1.06.29-2.17.38-3.27.25 1.92 1.23 4.14 1.88 6.41 1.88 7.7 0 11.9-6.38 11.9-11.9 0-.18 0-.36-.01-.54.82-.59 1.53-1.33 2.09-2.17Z" fill="#F9512E" fill-opacity="1" fill-rule="nonzero"/></g></svg>