<svg width="24" height="24" fill="none" xmlns="http://www.w3.org/2000/svg"><defs><clipPath id="clip11342_1459"><path id="Icon-cookie" transform="translate(-.5)" fill="#fff" fill-opacity="0" d="M0 0h24v24H0z"/></clipPath></defs><g clip-path="url('#clip11342_1459')"><path id="Vector" d="M21.44 11.99a5.002 5.002 0 0 1-4.94-5c-2.74 0-4.96-2.2-5-4.94-1.06-.16-2.15.02-3.11.5l-2.7 1.38c-.97.5-1.76 1.29-2.26 2.26L2.06 8.88c-.5.97-.67 2.08-.5 3.16l.47 2.98c.17 1.08.68 2.08 1.45 2.85l2.14 2.14c.77.77 1.77 1.28 2.84 1.45l3 .47c1.07.17 2.17 0 3.14-.5l2.7-1.37c.98-.5 1.77-1.29 2.26-2.26l1.37-2.69c.49-.96.67-2.05.51-3.12ZM8.37 16.37a1.25 1.25 0 1 1 0-2.5 1.25 1.25 0 0 1 0 2.5Zm1.25-6.25a1.25 1.25 0 1 1 0-2.5 1.25 1.25 0 0 1 0 2.5Zm6.25 5a1.25 1.25 0 1 1 0-2.5 1.25 1.25 0 0 1 0 2.5Z" fill="#FFF" fill-opacity="1" fill-rule="nonzero"/></g></svg>