<svg width="168" height="40" fill="none" xmlns="http://www.w3.org/2000/svg"><defs><clipPath id="clip11342_1426"><path id="Logo" fill="#fff" fill-opacity="0" d="M0 0h168v40H0z"/></clipPath></defs><g clip-path="url('#clip11342_1426')"><path id="Bakerlab" d="M57.67 5v25c0 2.2.2 3.8 1.64 4.16v.68h-8.24v-.68c1.52-.44 1.6-2.12 1.6-4.16V9.76c0-1.41-.4-2-2-2.6v-.69l7-1.47Zm59.23 0v25c0 2.2.2 3.8 1.6 4.16v.68h-8.2v-.68c1.52-.44 1.6-2.12 1.6-4.16V9.76c0-1.41-.4-2-2-2.6v-.69l7-1.47Zm31.32 14.4c1.28-2.4 4.24-3.4 6.16-3.4 4.48 0 8.48 3.52 8.48 9.84 0 6.44-4.24 9.36-9.84 9.36-2.4 0-4.52-.72-5.84-2.04-1.44 1.24-3.92 2.12-3.92 1.48V9.71c0-1.36-.4-1.95-2.04-2.55v-.69l7-1.47v14.4ZM25.48 13.48c0 5.95-6.36 6.92-7.17 6.92 2.6 0 9.04.44 9.04 7.28 0 7-5.71 7.16-12.63 7.16H5v-.36c1.72 0 2.31-2.4 2.31-5.12V12.2C7.31 9.71 6.75 7 5 7v-.32h9.72c.17 0 .35-.01.53-.01 5.35 0 10.23-.01 10.23 6.81Zm-5.57-.08c0-5.97-3.31-6.05-5.19-6.05h-1.56v12.89h1.56c2.15 0 5.19-.93 5.19-6.84Zm26.31 16.57c0 .2.04 2.78 1.92 2.78 0 0 .84 0 1.08-.67l.68.28c-.32 1.28-2.16 2.84-4.68 2.84 0 0-3.56 0-4-3.24-.6 1.76-2.96 3.24-5.8 3.24 0 0-4.6 0-4.6-4.08 0-4.36 3.36-4.76 10.36-6.52v-2.48c0-4.17-2.32-6.24-5.08-4.81-.94.48-1.28.97-1.28 1.21 0 .09.05.14.12.16.6.08 1.12.36 1.48.88.27.39.4.83.4 1.27 0 .72-.35 1.44-1 1.89-1.04.68-2.44.44-3.16-.6-.26-.42-.39-.89-.39-1.35 0-.38.09-.75.27-1.06.4-.67.92-1.76 3.12-2.92 1.8-.95 3.88-.79 3.88-.79 5.24 0 6.68 3.28 6.68 8v5.97Zm90.39 0c0 .2.04 2.78 1.92 2.78 0 0 .84 0 1.08-.67l.68.28c-.32 1.28-2.16 2.84-4.68 2.84 0 0-3.56 0-4-3.24-.6 1.76-2.96 3.24-5.8 3.24 0 0-4.6 0-4.6-4.08 0-4.36 3.36-4.76 10.36-6.52v-2.48c0-4.17-2.32-6.24-5.08-4.81-.94.48-1.28.97-1.28 1.21 0 .09.05.14.12.16.6.08 1.12.36 1.48.88.27.39.4.83.4 1.27 0 .72-.35 1.44-1 1.89-1.04.68-2.44.44-3.16-.6-.26-.42-.39-.89-.39-1.35 0-.38.09-.75.27-1.06.4-.67.92-1.76 3.12-2.92 1.8-.95 3.88-.79 3.88-.79 5.24 0 6.68 3.28 6.68 8v5.97Zm-64.15-4.29c0-5.64 3.83-9.68 9.35-9.68 5.81 0 8.52 3 8.52 9.24H77.62c.31 3.92 2.31 5.96 5 6.56 2.15.48 5.36-.32 6.36-2.2l.68.36c-.64 2.08-3 5.24-8.37 5.24-5.23 0-8.83-4.84-8.83-9.52Zm27.13-5.16c2.12-3.32 3.76-3.92 4.72-4.32.84-.36 2.36-.2 3.24.51.68.59 1.02 1.43 1.02 2.26 0 .7-.24 1.4-.74 1.95a2.986 2.986 0 0 1-4.2.32c-.6-.56-.92-1.24-.92-1.96 0-.44-1.64-.04-3.12 2.36v8.32c0 2.24.2 3.79 1.64 4.2v.68h-8.28v-.68c1.56-.48 1.6-2.12 1.6-4.2v-8.88c0-1.37-.36-1.96-2-2.8v-.68l7.04-1.6v4.52ZM62.35 23.8c5.92 8.36 6 8.36 6 8.36 1.32 1.84 3.12 1.96 3.8 2v.68h-5.64c-2.76 0-3.12-.72-5.8-4.72-1.2-1.76-2.24-3.36-2.24-3.36l3.76-4.08s2.71-2.75 2.71-4.41c0-.75-.56-1.28-2.19-1.23v-.68h9.72v.68c-.72.08-4.8.2-10.12 6.76Zm19.27-7.12c-2.37 0-4 4.04-4 7.88h7.84c0-5.04-1.65-7.88-3.84-7.88Zm66.6 11.16c0 5.04 2.48 6.68 4.76 6.68 2.92 0 4.16-2.24 4.16-8.36 0-6.4-1.48-8.48-4.76-8.48-2.72 0-4.16 2.24-4.16 5.08v5.08ZM13.16 34.16H14.84c3.43 0 6.64 0 6.64-6.68 0-6.36-4.09-6.56-6.76-6.56h-1.56v13.24Zm25.38-1.41c1.36 0 2.28-1.07 2.64-2.03v-5.41c-3.92.89-5.24 2.77-5.24 4.81 0 0 0 2.63 2.6 2.63Zm90.39 0c1.36 0 2.28-1.07 2.64-2.03v-5.41c-3.92.89-5.24 2.77-5.24 4.81 0 0 0 2.63 2.6 2.63Z" fill="#1C1A26" fill-opacity="1" fill-rule="evenodd"/></g></svg>