<svg width="158" height="31" fill="none" xmlns="http://www.w3.org/2000/svg"><path id="Bakerlab" d="M52.67 0v25c0 2.2.2 3.8 1.64 4.15v.69h-8.24v-.69c1.52-.43 1.6-2.11 1.6-4.15V4.76c0-1.4-.4-2-2-2.61v-.68l7-1.47Zm59.23 0v25c0 2.2.2 3.8 1.6 4.15v.69h-8.2v-.69c1.52-.43 1.6-2.11 1.6-4.15V4.76c0-1.4-.4-2-2-2.61v-.68l7-1.47Zm31.32 14.39C144.5 12 147.46 11 149.38 11c4.48 0 8.48 3.52 8.48 9.84 0 6.44-4.24 9.36-9.84 9.36-2.4 0-4.52-.72-5.84-2.05-1.44 1.24-3.92 2.13-3.92 1.48V4.71c0-1.35-.4-1.95-2.04-2.56v-.68l7-1.47v14.39ZM20.48 8.47c0 5.96-6.36 6.92-7.16 6.92 2.6 0 9.04.45 9.04 7.28 0 7-5.72 7.17-12.64 7.17H0v-.36c1.72 0 2.32-2.4 2.32-5.12V7.19C2.32 4.71 1.76 2 0 2v-.33h10.25c5.35 0 10.23-.01 10.23 6.8Zm-5.56-.08c0-5.96-3.32-6.03-5.2-6.03H8.16v12.88h1.56c2.16 0 5.2-.92 5.2-6.85Zm26.3 16.58c0 .2.04 2.79 1.92 2.79 0 0 .84 0 1.08-.68l.68.28c-.32 1.27-2.16 2.84-4.68 2.84 0 0-3.56 0-4-3.24-.6 1.76-2.96 3.24-5.8 3.24 0 0-4.6 0-4.6-4.08 0-4.36 3.36-4.76 10.36-6.52v-2.48c0-4.16-2.32-6.25-5.08-4.8-.94.47-1.28.96-1.28 1.2 0 .09.05.14.12.15.6.09 1.12.37 1.48.89.27.39.4.83.4 1.27 0 .72-.35 1.44-1 1.88-1.04.68-2.44.44-3.16-.59-.26-.42-.39-.89-.39-1.35 0-.38.09-.75.27-1.05.4-.68.92-1.76 3.12-2.92 1.8-.96 3.88-.8 3.88-.8 5.24 0 6.68 3.28 6.68 8v5.97Zm90.39 0c0 .2.04 2.79 1.92 2.79 0 0 .84 0 1.08-.68l.68.28c-.32 1.27-2.16 2.84-4.68 2.84 0 0-3.56 0-4-3.24-.6 1.76-2.96 3.24-5.8 3.24 0 0-4.6 0-4.6-4.08 0-4.36 3.36-4.76 10.36-6.52v-2.48c0-4.16-2.32-6.25-5.08-4.8-.94.47-1.28.96-1.28 1.2 0 .09.05.14.12.15.6.09 1.12.37 1.48.89.27.39.4.83.4 1.27 0 .72-.35 1.44-1 1.88-1.04.68-2.44.44-3.16-.59-.26-.42-.39-.89-.39-1.35 0-.38.09-.75.27-1.05.4-.68.92-1.76 3.12-2.92 1.8-.96 3.88-.8 3.88-.8 5.24 0 6.68 3.28 6.68 8v5.97Zm-64.15-4.3c0-5.63 3.84-9.67 9.36-9.67 5.8 0 8.52 3 8.52 9.24H72.62c.32 3.91 2.32 5.96 5 6.56 2.16.48 5.36-.32 6.36-2.2l.68.36c-.64 2.08-3 5.24-8.36 5.24-5.24 0-8.84-4.84-8.84-9.53Zm27.13-5.15c2.12-3.32 3.76-3.92 4.72-4.32.84-.36 2.36-.2 3.24.52a2.95 2.95 0 0 1 1.02 2.25c0 .7-.24 1.4-.74 1.94-1.08 1.24-2.92 1.41-4.2.33-.6-.57-.92-1.24-.92-1.96 0-.44-1.64-.04-3.12 2.35v8.33c0 2.24.2 3.8 1.64 4.19v.69h-8.28v-.69c1.56-.48 1.6-2.11 1.6-4.19v-8.88c0-1.36-.36-1.96-2-2.8v-.68l7.04-1.6v4.52Zm-37.24 3.27c5.92 8.36 6 8.36 6 8.36 1.32 1.85 3.12 1.97 3.8 2v.69h-5.64c-2.76 0-3.12-.72-5.8-4.72-1.2-1.76-2.24-3.36-2.24-3.36l3.76-4.09s2.71-2.74 2.71-4.4c0-.75-.56-1.28-2.19-1.23v-.68h9.72v.68c-.72.08-4.8.2-10.12 6.75Zm19.27-7.12c-2.36 0-4 4.05-4 7.89h7.84c0-5.04-1.64-7.89-3.84-7.89Zm66.6 11.17c0 5.03 2.48 6.68 4.76 6.68 2.92 0 4.16-2.24 4.16-8.37 0-6.39-1.48-8.48-4.76-8.48-2.72 0-4.16 2.24-4.16 5.09v5.08ZM8.16 29.15H9.84c3.43.01 6.64.01 6.64-6.67 0-6.36-4.08-6.57-6.76-6.57H8.16v13.24Zm25.38-1.39c1.36 0 2.28-1.09 2.64-2.04v-5.4c-3.92.88-5.24 2.76-5.24 4.8 0 0 0 2.64 2.6 2.64Zm90.39 0c1.36 0 2.28-1.09 2.64-2.04v-5.4c-3.92.88-5.24 2.76-5.24 4.8 0 0 0 2.64 2.6 2.64Z" fill="#FFF" fill-opacity="1" fill-rule="evenodd"/></svg>